<?xml version="1.0" encoding="utf-8"?>
<!-- Generator: Adobe Illustrator 19.0.0, SVG Export Plug-In . SVG Version: 6.00 Build 0)  -->
<svg version="1.1" id="Layer_1" xmlns="http://www.w3.org/2000/svg" xmlns:xlink="http://www.w3.org/1999/xlink" x="0px" y="0px"
	 viewBox="0 0 512 512" style="enable-background:new 0 0 512 512;" xml:space="preserve">
<g id="XMLID_1_">
	<path id="XMLID_3_" fill='#288c9c' d="M285.8,362.1h-1.9c-4.7,0.9-8.4,2.8-12.1,5.6l-79.1,79.1c-16.8,16.8-39.1,26.1-63.3,26.1
		s-46.5-9.3-63.3-26.1C49.3,430.1,40,407.7,40,383.5c0-24.2,9.3-46.5,26.1-63.3l84.7-84.7c4.7-4.7,9.3-8.4,14-11.2
		c5.6-3.7,12.1-6.5,18.6-9.3c5.6-1.9,12.1-3.7,18.6-4.7c3.7-0.9,8.4-0.9,12.1-0.9c1.9,0,3.7,0,5.6,0c21.4,0.9,41.9,10.2,57.7,26.1
		c9.3,9.3,16.8,21.4,21.4,33.5c3.7,10.2,14,15.8,24.2,12.1l0,0l0,0c10.2-2.8,15.8-14,13-23.3c-5.6-19.5-14.9-35.4-30.7-50.3
		c-19.5-19.5-43.8-31.7-70.7-36.3c-2.8,0-4.7-0.9-7.4-0.9c-4.7-0.9-9.3-0.9-14-0.9c-2.8,0-6.5,0-9.3,0c-6.5,0.9-13,1.9-19.5,2.8
		c-0.9,0-2.8,0.9-3.7,0.9c-8.4,1.9-16.8,5.6-24.2,9.3c-13,6.5-24.2,14-34.4,24.2l-84.7,84.7C13,315.6,0,348.2,0,382.6
		s13,67,38.2,91.2c24.2,24.2,56.8,37.2,91.2,37.2s67-13,91.2-38.2l80.1-80.1C313.7,381.7,303.5,360.3,285.8,362.1z"/>
	<path id="XMLID_4_" fill='#288c9c' d="M473.8,39.1C449.6,14.9,417,0.9,382.6,0.9s-67,13-91.2,38.2l-79.1,78.2c-12.1,12.1-4.7,32.6,12.1,33.5
		c5.6,0.9,11.2-1.9,15.8-5.6L318.4,67C335.1,50.3,357.5,41,381.7,41c24.2,0,46.5,9.3,63.3,26.1c16.8,16.8,26.1,39.1,26.1,63.3
		s-9.3,46.5-26.1,63.3l-84.7,84.7c-4.7,4.7-9.3,8.4-14,11.2c-5.6,3.7-12.1,6.5-18.6,9.3c-5.6,1.9-12.1,3.7-18.6,4.7
		c-3.7,0.9-8.4,0.9-12.1,0.9c-1.9,0-3.7,0-5.6,0c-21.4-0.9-41.9-10.2-57.7-26.1c-9.3-9.3-15.8-19.5-20.5-31.7
		c-3.7-9.3-14-14.9-23.3-12.1c-11.2,2.8-17.7,14-14,25.1c5.6,17.7,14.9,31.7,28.9,46.5l0,0c20.5,20.5,48.4,33.5,78.2,37.2
		c4.7,0.9,9.3,0.9,14,0.9c2.8,0,6.5,0,9.3,0c8.4-0.9,15.8-1.9,24.2-3.7c8.4-1.9,16.8-5.6,24.2-9.3c13-6.5,24.2-14,34.4-24.2
		l84.7-84.7c24.2-24.2,38.2-56.8,38.2-91.2C512,95.9,498,63.3,473.8,39.1z"/>
</g>
</svg>
