<svg id="Capa_1" enable-background="new 0 0 512 512" height="512" viewBox="0 0 512 512" width="512" xmlns="http://www.w3.org/2000/svg"><g><path d="m407 46h-302c-57.897 0-105 47.103-105 105v45c0 8.284 6.716 15 15 15h89.683l-46.783 113.827c-17.427 42.401-15.973 90.389 3.992 131.662.142.163 3.549 9.511 14.008 9.511h360c5.68 0 10.872-3.208 13.414-8.287 21.019-42.003 22.716-90.958 4.655-134.313l-46.819-112.4h89.85c8.284 0 15-6.716 15-15v-45c0-57.897-47.103-105-105-105zm19.281 390h-340.694c-13.033-31.842-13.094-67.761.062-99.769l49.126-119.529c1.99-4.844.741-1.4 1.126-80.702h45.099v45c0 8.284 6.716 15 15 15h119.9c8.284 0 15-6.716 15-15v-45h45c.393 79.219-.886 75.877 1.153 80.768l49.223 118.167c13.532 32.482 13.441 68.825.005 101.065zm-125.381-300v30h-89.9v-30zm181.1 45c-59.995.023-74.016-.092-76.1.053v-60.053c0-8.284-6.716-15-15-15h-270c-8.284 0-15 6.716-15 15v60.048c-1.194-.075-41.532-.035-75.9-.048v-30c0-41.355 33.645-75 75-75h302c41.355 0 75 33.645 75 75z"/><circle cx="195.95" cy="241" r="15"/><circle cx="255.95" cy="241" r="15"/><circle cx="315.95" cy="241" r="15"/><circle cx="195.95" cy="301" r="15"/><circle cx="255.95" cy="301" r="15"/><circle cx="315.95" cy="301" r="15"/><circle cx="195.95" cy="361" r="15"/><circle cx="255.95" cy="361" r="15"/><circle cx="315.95" cy="361" r="15"/></g></svg>